#!OML:ASF X:\für Bonn\!DataBase\2005_08_10_Bjorn_Final\c3d\bjorn.ASF
:FULLY-SPECIFIED
:DEGREES
181
root 3.04669 17.2769 -29.8061 81.524 -77.7549 -80.2126
lowerback 3.0984 -2.69887 12.4246
upperback 9.76125 -4.69095 3.84017
thorax 8.18112 -1.79715 -2.98252
lowerneck -4.48619 5.81232 4.88101
upperneck -3.5112 7.35378 -10.7119
head 0.311006 3.57335 -4.21608
rclavicle 1.76173e-014 -3.01159e-014
rhumerus -40.4873 7.27199 -90.13
rradius 75.3243
rwrist -1.13301
rhand -32.3668 27.2298
rfingers 7.12502
rthumb -5.60287 -2.67615
lclavicle 1.76173e-014 -3.01159e-014
lhumerus -36.0917 -34.1439 104.77
lradius 85.3948
lwrist -7.38789
lhand -43.8968 -27.6119
lfingers 7.12502
lthumb -16.7219 1.6879
rfemur -18.9978 -5.6337 17.1455
rtibia 51.5354
rfoot -28.7575 18.0159
rtoes -32.5911
lfemur -9.95943 -4.60238 -14.479
ltibia 88.4999
lfoot -8.11797 1.80618
ltoes -1.77135
182
root 2.81861 17.2313 -29.874 78.9169 -77.4507 -77.7239
lowerback 3.44479 -2.45682 12.5337
upperback 9.75999 -4.31444 3.88879
thorax 8.03195 -1.61557 -2.9641
lowerneck -4.57833 5.67691 4.8205
upperneck -3.61042 7.16281 -10.6564
head 0.273847 3.47762 -4.19069
rclavicle 2.92213e-014 -3.40419e-014
rhumerus -38.6186 7.82776 -90.4241
rradius 75.3452
rwrist -1.36516
rhand -32.1559 26.6647
rfingers 7.12502
rthumb -5.39922 -3.24647
lclavicle 2.92213e-014 -3.40419e-014
lhumerus -37.1031 -33.2366 105.206
lradius 84.8239
lwrist -7.47164
lhand -43.2878 -27.0668
lfingers 7.12502
lthumb -16.1355 2.28148
rfemur -17.8574 -5.927 17.4789
rtibia 51.6306
rfoot -29.5191 18.4642
rtoes -31.5771
lfemur -12.3903 -3.7294 -14.131
ltibia 90.3649
lfoot -9.37719 2.1316
ltoes -4.3668
183
root 2.58711 17.1997 -29.9355 76.5913 -77.1265 -75.5013
lowerback 3.7656 -2.19017 12.6924
upperback 9.74677 -3.90547 3.92157
thorax 7.88772 -1.41275 -2.99284
lowerneck -4.64689 5.52151 4.79639
upperneck -3.59189 6.95517 -10.6074
head 0.271255 3.37257 -4.17397
rclavicle -6.4605e-015 -9.88954e-015
rhumerus -36.7883 8.25333 -90.7067
rradius 75.4641
rwrist -1.46639
rhand -31.9814 26.8842
rfingers 7.12502
rthumb -5.23073 -3.03119
lclavicle -6.4605e-015 -9.88954e-015
lhumerus -38.1358 -32.2896 105.561
lradius 84.2332
lwrist -7.80886
lhand -42.6595 -26.5214
lfingers 7.12502
lthumb -15.5304 2.87489
rfemur -16.6005 -6.11099 17.8278
rtibia 51.4557
rfoot -30.2278 18.8117
rtoes -30.4844
lfemur -14.8655 -2.82879 -13.8814
ltibia 91.9482
lfoot -10.5002 2.53437
ltoes -5.88373
184
root 2.34879 17.1811 -29.989 74.5143 -76.8401 -73.5022
lowerback 4.0025 -1.89796 12.8405
upperback 9.73695 -3.47349 3.93364
thorax 7.80037 -1.19399 -3.0441
lowerneck -4.74081 5.34904 4.79515
upperneck -3.4799 6.73059 -10.5906
head 0.304456 3.25662 -4.17162
rclavicle -2.98177e-015 -2.43511e-014
rhumerus -35.1426 8.37394 -91.1067
rradius 75.8349
rwrist -1.117
rhand -32.0133 27.7607
rfingers 7.12502
rthumb -5.26158 -2.154
lclavicle -2.98177e-015 -2.43511e-014
lhumerus -39.2373 -31.4309 105.738
lradius 83.8237
lwrist -8.11703
lhand -41.9698 -26.0159
lfingers 7.12502
lthumb -14.8661 3.43076
rfemur -15.2258 -6.21941 18.1213
rtibia 50.9969
rfoot -30.7335 19.2241
rtoes -29.1252
lfemur -17.3428 -1.96932 -13.7882
ltibia 93.1803
lfoot -11.4793 2.69766
ltoes -7.52015
185
root 2.09993 17.1804 -30.0336 72.5965 -76.61 -71.6452
lowerback 4.16993 -1.59585 12.9709
upperback 9.72338 -3.03407 3.90722
thorax 7.75012 -0.96761 -3.13091
lowerneck -4.89759 5.18808 4.75562
upperneck -3.23088 6.53425 -10.505
head 0.39105 3.15203 -4.13291
rclavicle 2.46741e-014 2.70347e-014
rhumerus -33.7213 8.56068 -91.4959
rradius 76.6433
rwrist -0.973983
rhand -31.9151 28.0347
rfingers 7.12502
rthumb -5.1668 -1.88231
lclavicle 2.46741e-014 2.70347e-014
lhumerus -40.0909 -30.5383 105.855
lradius 83.2442
lwrist -8.58162
lhand -41.4329 -25.6632
lfingers 7.12502
lthumb -14.3488 3.82094
rfemur -13.7018 -6.31782 18.3453
rtibia 50.2456
rfoot -31.0225 19.4841
rtoes -28.206
lfemur -19.7404 -1.18199 -13.8787
ltibia 93.9881
lfoot -12.299 2.67404
ltoes -8.66844
186
root 1.83698 17.1987 -30.0699 70.856 -76.442 -69.9324
lowerback 4.21238 -1.26431 13.041
upperback 9.71582 -2.57472 3.86762
thorax 7.78396 -0.729079 -3.20343
lowerneck -5.09001 5.01561 4.65909
upperneck -2.92077 6.32897 -10.3905
head 0.499818 3.04166 -4.07227
rclavicle -4.32357e-015 -6.32135e-014
rhumerus -32.3809 8.58544 -92.0177
rradius 77.5499
rwrist -0.715411
rhand -31.7637 27.6015
rfingers 7.12502
rthumb -5.02054 -2.319
lclavicle -4.32357e-015 -6.32135e-014
lhumerus -41.1764 -29.6777 105.982
lradius 83.0063
lwrist -9.15877
lhand -40.9607 -25.3576
lfingers 7.12502
lthumb -13.8937 4.15823
rfemur -12.0449 -6.30222 18.5093
rtibia 49.233
rfoot -31.074 19.7362
rtoes -27.0337
lfemur -21.9882 -0.41098 -14.173
ltibia 94.3077
lfoot -13.2443 2.64498
ltoes -10.5449
